<?xml version="1.0" encoding="UTF-8" ?>
<!DOCTYPE svg PUBLIC "-//W3C//DTD SVG 1.1//EN" "http://www.w3.org/Graphics/SVG/1.1/DTD/svg11.dtd">
<svg width="208pt" height="128pt" viewBox="0 0 208 128" version="1.1" xmlns="http://www.w3.org/2000/svg">
<g id="#ffffffff">
</g>
<g id="#017dc5ff">
<path fill="#017dc5" opacity="1.00" d=" M 35.01 19.79 C 58.44 6.71 86.00 2.54 112.54 4.20 C 138.36 6.26 165.24 13.88 184.35 32.21 C 174.96 32.23 165.58 32.26 156.19 32.20 C 141.45 19.72 121.95 14.68 103.05 13.18 C 80.09 11.24 56.02 14.23 35.67 25.60 C 24.37 31.96 14.24 41.63 10.12 54.19 C 6.92 64.30 7.87 75.70 13.12 84.95 C 14.67 87.98 17.07 90.47 18.51 93.56 C 14.83 91.19 12.58 87.28 10.18 83.74 C 4.14 74.13 2.28 61.88 6.16 51.11 C 11.00 37.25 22.56 26.91 35.01 19.79 Z" />
</g>
<g id="#060000ff">
<path fill="#060000" opacity="1.00" d=" M 139.16 31.10 C 143.08 29.84 147.47 33.84 146.48 37.92 C 145.93 42.70 138.99 44.52 136.14 40.67 C 133.23 37.59 135.10 32.04 139.16 31.10 Z" />
<path fill="#060000" opacity="1.00" d=" M 35.69 50.57 C 43.92 43.35 58.83 43.23 65.21 52.96 C 65.08 50.89 64.92 48.82 64.84 46.74 C 68.43 46.74 72.03 46.75 75.63 46.71 C 75.51 61.38 75.59 76.05 75.58 90.72 C 72.00 90.65 68.42 90.67 64.84 90.64 C 64.95 88.66 65.08 86.67 65.19 84.69 C 58.71 94.09 44.18 94.09 35.92 87.15 C 25.13 78.25 24.97 59.59 35.69 50.57 M 47.56 55.77 C 41.16 57.57 37.32 64.70 38.50 71.10 C 39.53 78.66 47.70 84.04 55.06 81.90 C 63.06 80.21 67.36 70.29 63.98 63.07 C 61.52 56.81 53.83 53.67 47.56 55.77 Z" />
<path fill="#060000" opacity="1.00" d=" M 90.48 50.56 C 97.28 44.77 107.44 44.02 115.48 47.49 C 121.95 50.34 126.59 56.34 128.51 63.07 C 124.92 63.08 121.34 63.08 117.76 63.07 C 114.87 56.28 106.14 53.02 99.60 56.53 C 90.10 60.96 90.31 76.89 100.04 80.95 C 106.49 84.22 114.65 80.99 117.78 74.64 C 121.35 74.69 124.93 74.68 128.51 74.65 C 126.66 80.39 123.09 85.75 117.78 88.80 C 109.37 93.79 97.77 93.02 90.30 86.63 C 86.02 83.13 83.24 77.97 82.27 72.57 C 80.85 64.49 84.05 55.70 90.48 50.56 Z" />
<path fill="#060000" opacity="1.00" d=" M 135.46 90.72 C 135.47 76.05 135.52 61.37 135.43 46.70 C 138.95 46.75 142.48 46.74 146.00 46.74 C 146.00 61.39 146.00 76.05 146.00 90.70 C 142.49 90.64 138.97 90.64 135.46 90.72 Z" />
</g>
<g id="#ec1d25ff">
<path fill="#ec1d25" opacity="1.00" d=" M 160.74 36.63 C 170.02 36.81 179.30 36.57 188.58 36.75 C 193.89 43.64 197.77 51.74 198.52 60.50 C 190.01 60.56 181.49 60.45 172.98 60.56 C 171.50 51.56 167.00 43.19 160.74 36.63 Z" />
</g>
<g id="#f68121ff">
<path fill="#f68121" opacity="1.00" d=" M 173.34 64.93 C 181.75 64.95 190.16 64.91 198.57 64.96 C 197.95 74.48 193.73 83.46 187.54 90.61 C 179.93 90.69 172.32 90.50 164.72 90.73 C 170.23 83.32 173.57 74.24 173.34 64.93 Z" />
</g>
<g id="#54b848ff">
<path fill="#54b848" opacity="1.00" d=" M 161.12 95.00 C 168.52 95.05 175.93 95.00 183.33 95.01 C 166.21 110.99 142.96 118.72 120.10 121.65 C 109.28 122.67 98.05 124.00 87.38 121.48 C 94.30 120.81 101.30 121.27 108.18 120.11 C 127.77 117.50 147.50 109.78 161.12 95.00 Z" />
</g>
</svg>
