<?xml version="1.0" encoding="UTF-8" ?>
<!DOCTYPE svg PUBLIC "-//W3C//DTD SVG 1.1//EN" "http://www.w3.org/Graphics/SVG/1.1/DTD/svg11.dtd">
<svg width="530pt" height="400pt" viewBox="0 0 530 400" version="1.1" xmlns="http://www.w3.org/2000/svg">
<g id="#fefffeff">
<path fill="#fefffe" opacity="1.00" d=" M 354.86 145.78 C 361.83 136.47 373.95 133.40 384.98 132.44 C 392.59 132.26 400.25 131.95 407.83 132.90 C 408.30 139.95 408.16 147.02 408.21 154.08 C 405.43 151.79 402.89 148.44 399.00 148.22 C 396.29 148.05 392.96 147.76 391.00 150.05 C 386.16 155.41 385.61 163.07 385.47 169.96 C 385.41 179.73 385.26 189.50 385.56 199.26 C 391.20 199.26 396.84 199.10 402.48 199.35 C 402.47 202.24 402.43 205.14 402.37 208.04 C 397.28 211.86 390.78 209.43 385.30 211.57 C 385.60 215.80 385.51 220.07 384.29 224.16 C 382.53 229.47 385.79 234.61 385.44 239.96 C 385.25 248.83 385.64 257.72 385.25 266.58 C 384.19 269.53 381.54 271.58 380.12 274.37 C 377.01 280.38 376.66 287.67 378.59 294.10 C 379.73 298.38 383.13 301.44 385.17 305.25 C 371.34 305.26 357.49 305.54 343.67 305.09 C 346.70 302.55 350.37 300.94 353.51 298.53 C 363.15 290.61 369.54 278.60 369.81 266.04 C 370.16 257.38 368.20 248.27 362.75 241.36 C 358.80 236.15 353.92 231.67 348.59 227.89 C 348.30 222.18 348.68 216.47 348.28 210.77 C 345.05 210.75 341.81 210.75 338.58 210.63 C 338.54 206.78 338.49 202.94 338.72 199.10 C 347.76 204.53 352.63 214.33 360.36 221.15 C 360.59 205.27 360.65 189.36 360.34 173.47 C 356.44 174.11 352.53 174.84 348.56 174.67 C 348.09 164.81 348.27 153.81 354.86 145.78 Z" />
<path fill="#fefffe" opacity="1.00" d=" M 292.02 177.61 C 304.77 172.97 318.89 173.46 331.96 176.51 C 339.93 178.10 347.97 179.96 356.16 179.35 C 356.42 189.36 356.28 199.39 356.22 209.41 C 353.63 207.49 351.50 205.05 349.41 202.62 C 342.08 194.72 332.05 188.44 320.98 188.43 C 315.79 187.90 310.52 192.67 311.15 198.01 C 310.71 202.54 313.67 206.31 316.47 209.52 C 324.25 217.34 333.96 222.74 342.86 229.13 C 351.89 235.00 360.80 242.56 364.17 253.17 C 369.88 270.63 360.83 291.26 344.40 299.30 C 330.53 305.47 314.89 307.92 299.84 305.64 C 294.59 305.07 289.08 305.18 284.15 303.07 C 278.77 296.36 279.48 287.02 279.53 278.92 C 286.50 282.85 292.95 288.33 301.13 289.51 C 306.51 290.14 313.08 288.78 316.00 283.77 C 317.63 278.13 315.67 271.63 311.05 267.93 C 302.08 260.41 292.21 254.05 282.88 247.00 C 281.39 245.63 279.15 244.29 279.43 241.96 C 279.22 229.41 279.77 216.85 279.17 204.32 C 274.80 204.28 270.40 204.52 266.06 203.86 C 269.22 191.31 279.68 181.17 292.02 177.61 Z" />
<path fill="#fefffe" opacity="1.00" d=" M 181.13 208.64 C 193.26 208.57 205.40 208.59 217.53 208.62 C 217.81 229.77 217.56 250.93 217.66 272.08 C 217.87 277.31 218.88 283.25 223.28 286.67 C 227.35 290.41 234.30 290.04 238.19 286.21 C 241.22 283.42 242.28 279.07 242.31 275.09 C 242.26 260.04 242.25 245.00 242.29 229.96 C 242.28 222.71 240.94 215.56 238.94 208.62 C 251.07 208.61 263.21 208.53 275.34 208.67 C 275.62 235.45 275.21 262.24 275.56 289.03 C 275.44 293.95 277.01 298.65 278.37 303.31 C 266.40 303.42 254.42 303.36 242.45 303.37 C 242.35 300.01 242.38 296.66 242.22 293.31 C 239.65 294.91 237.54 297.10 235.08 298.85 C 225.78 304.10 214.81 306.98 204.15 305.08 C 197.38 303.59 191.28 299.09 188.14 292.87 C 182.92 283.79 184.77 272.96 184.72 262.99 C 184.55 249.32 185.11 235.64 184.36 221.98 C 184.26 217.34 182.54 212.99 181.13 208.64 Z" />
<path fill="#fefffe" opacity="1.00" d=" M 410.05 210.53 C 420.17 208.01 430.68 208.26 441.02 208.56 C 449.10 209.25 457.55 211.70 463.47 217.53 C 466.12 221.07 467.58 225.49 467.47 229.92 C 467.47 248.29 467.45 266.66 467.47 285.04 C 467.48 291.90 468.80 298.67 470.64 305.25 C 458.71 305.30 446.78 305.46 434.85 305.18 C 434.63 301.42 434.68 297.65 434.46 293.89 C 430.88 296.46 428.08 300.01 424.17 302.16 C 416.42 307.01 406.89 307.49 398.06 306.33 C 391.53 304.83 385.34 300.37 383.08 293.89 C 379.27 285.37 382.45 274.43 390.10 269.14 C 402.08 261.10 416.90 258.33 428.42 249.49 C 433.36 245.62 435.01 239.03 434.66 233.01 C 434.92 227.64 434.53 221.56 430.36 217.64 C 427.30 215.64 423.07 216.29 420.04 218.02 C 415.65 222.29 415.45 229.06 411.77 233.82 C 407.98 237.72 402.19 238.97 396.94 238.23 C 393.74 237.55 389.96 236.36 388.93 232.84 C 387.61 228.35 387.89 222.91 391.37 219.43 C 396.38 214.45 403.28 211.99 410.05 210.53 M 430.29 258.28 C 425.52 262.08 419.94 265.28 416.69 270.62 C 413.99 274.37 414.12 279.19 414.77 283.54 C 415.99 286.26 418.20 288.54 420.80 289.96 C 424.44 291.34 428.91 290.57 431.49 287.50 C 434.46 284.90 434.81 280.74 434.77 277.05 C 434.70 270.82 435.04 264.57 434.49 258.35 C 433.13 258.03 431.47 256.97 430.29 258.28 Z" />
</g>
<g id="#2acca2ff">
<path fill="#2acca2" opacity="1.00" d=" M 33.21 36.13 C 58.94 34.86 84.25 42.52 107.19 53.65 C 127.02 65.08 144.40 80.82 157.64 99.50 C 162.81 106.97 165.92 115.59 169.28 123.97 C 174.22 134.94 180.53 146.37 191.64 152.11 C 203.34 157.11 215.93 152.28 228.06 153.32 C 232.13 153.44 235.26 156.64 239.17 157.32 C 243.76 157.56 248.44 156.93 252.95 158.11 C 252.02 160.13 249.54 160.15 247.72 160.82 C 244.41 161.87 240.57 162.37 238.05 164.97 C 235.75 168.67 234.29 172.92 231.17 176.08 C 228.46 179.54 223.44 181.94 223.64 186.97 C 223.60 194.10 229.24 199.42 233.67 204.36 C 233.00 204.44 231.66 204.58 230.98 204.65 C 232.31 207.91 234.14 210.92 235.72 214.06 C 237.59 217.73 237.54 221.95 237.58 225.97 C 237.54 242.00 237.50 258.04 237.61 274.07 C 237.48 276.52 237.73 279.23 236.33 281.39 C 234.02 284.38 229.44 285.94 226.01 283.99 C 222.91 281.76 222.80 277.49 222.51 274.04 C 222.17 250.92 222.85 227.77 222.20 204.65 C 215.48 203.93 208.72 204.44 202.00 204.00 C 196.00 203.60 190.00 204.44 184.00 204.06 C 180.39 203.83 176.77 204.02 173.16 204.35 C 175.20 210.71 180.22 216.05 180.36 222.97 C 180.63 229.66 180.36 236.37 180.47 243.07 C 177.76 240.72 175.10 238.17 171.79 236.67 C 168.59 237.50 165.43 239.72 164.37 242.99 C 160.17 254.77 157.60 267.80 149.14 277.46 C 138.34 278.46 127.32 275.12 119.04 268.08 C 112.13 261.96 106.53 254.35 102.97 245.83 C 100.24 239.33 96.71 232.72 97.24 225.45 C 106.84 221.24 117.39 220.14 127.35 217.08 C 133.37 215.52 138.95 212.72 144.58 210.13 C 144.37 208.84 144.35 207.44 143.52 206.35 C 129.17 186.72 120.34 163.86 111.19 141.52 C 108.86 134.28 105.51 127.39 103.68 119.98 C 102.84 116.75 101.80 113.19 98.75 111.34 C 89.96 105.27 81.71 98.45 73.79 91.29 C 59.90 79.54 49.03 64.67 39.73 49.14 C 37.42 44.89 34.48 40.86 33.21 36.13 Z" />
<path fill="#2acca2" opacity="1.00" d=" M 279.43 249.33 C 284.30 253.29 289.42 256.92 294.61 260.44 C 295.32 261.08 296.48 261.47 296.73 262.50 C 298.57 269.44 303.48 275.05 305.45 281.97 C 302.91 286.11 298.02 283.88 294.49 282.55 C 289.19 280.28 284.10 277.20 279.99 273.14 C 278.68 265.33 279.96 257.24 279.43 249.33 Z" />
<path fill="#2acca2" opacity="1.00" d=" M 259.02 307.53 C 268.96 307.72 279.07 306.58 288.85 308.92 C 298.42 310.52 308.23 311.80 317.92 310.69 C 320.99 314.48 322.05 319.35 324.14 323.68 C 326.01 327.59 327.26 331.75 328.17 335.99 C 329.28 341.21 331.78 346.00 333.11 351.16 C 335.34 360.60 338.53 370.02 337.70 379.87 C 335.45 379.69 333.13 379.63 331.06 378.62 C 314.65 371.22 299.33 361.17 286.82 348.16 C 278.62 340.46 272.03 331.28 265.95 321.88 C 263.39 317.23 260.39 312.72 259.02 307.53 Z" />
</g>
<g id="#383ac3ff">
<path fill="#383ac3" opacity="1.00" d=" M 364.01 133.19 C 371.42 129.39 379.80 128.51 387.95 127.66 C 395.48 127.18 403.03 127.67 410.46 128.91 C 412.94 129.29 412.19 132.14 412.38 133.93 C 412.24 147.35 412.59 160.78 412.21 174.19 C 408.65 169.49 408.74 163.15 405.47 158.29 C 403.49 154.82 399.77 151.42 395.47 152.53 C 392.14 153.61 391.10 157.29 390.54 160.35 C 389.22 171.67 389.74 183.08 389.73 194.45 C 395.33 194.65 400.93 194.49 406.53 194.55 C 406.71 198.55 406.67 202.57 406.76 206.58 C 421.62 203.69 437.29 201.98 452.10 206.10 C 459.70 208.47 467.89 213.13 470.22 221.29 C 472.02 226.34 471.44 231.75 471.49 237.00 C 471.51 252.01 471.50 267.02 471.49 282.04 C 471.53 287.71 471.41 293.52 473.20 298.98 C 474.42 302.83 477.02 305.99 479.00 309.45 C 462.87 309.58 446.75 309.55 430.62 309.46 C 430.47 307.61 430.34 305.76 430.20 303.91 C 422.26 308.50 413.27 311.86 403.99 311.58 C 399.56 311.55 395.43 309.57 391.02 309.52 C 374.33 309.52 357.63 309.56 340.94 309.49 C 338.46 309.72 336.50 307.74 334.13 307.63 C 328.72 308.60 323.41 310.17 317.92 310.69 C 308.23 311.80 298.42 310.52 288.85 308.92 C 279.07 306.58 268.96 307.72 259.02 307.53 C 252.20 307.41 245.37 307.54 238.54 307.40 C 238.42 305.63 238.31 303.86 238.20 302.10 C 227.48 308.23 214.70 311.60 202.42 309.03 C 195.27 307.44 189.13 302.59 185.33 296.43 C 182.71 290.99 180.11 285.21 180.34 279.04 C 180.43 267.05 180.62 255.06 180.47 243.07 C 180.36 236.37 180.63 229.66 180.36 222.97 C 180.22 216.05 175.20 210.71 173.16 204.35 C 176.77 204.02 180.39 203.83 184.00 204.06 C 190.00 204.44 196.00 203.60 202.00 204.00 C 208.72 204.44 215.48 203.93 222.20 204.65 C 222.85 227.77 222.17 250.92 222.51 274.04 C 222.80 277.49 222.91 281.76 226.01 283.99 C 229.44 285.94 234.02 284.38 236.33 281.39 C 237.73 279.23 237.48 276.52 237.61 274.07 C 237.50 258.04 237.54 242.00 237.58 225.97 C 237.54 221.95 237.59 217.73 235.72 214.06 C 234.14 210.92 232.31 207.91 230.98 204.65 C 231.66 204.58 233.00 204.44 233.67 204.36 C 243.07 203.98 252.49 204.64 261.89 204.10 C 264.95 189.18 277.14 176.82 291.81 173.04 C 298.71 171.09 305.77 169.25 313.00 169.55 C 323.62 169.17 333.71 173.31 344.25 173.87 C 344.35 167.13 343.81 160.18 346.07 153.70 C 348.88 144.76 355.35 136.96 364.01 133.19 M 354.86 145.78 C 348.27 153.81 348.09 164.81 348.56 174.67 C 352.53 174.84 356.44 174.11 360.34 173.47 C 360.65 189.36 360.59 205.27 360.36 221.15 C 352.63 214.33 347.76 204.53 338.72 199.10 C 338.49 202.94 338.54 206.78 338.58 210.63 C 341.81 210.75 345.05 210.75 348.28 210.77 C 348.68 216.47 348.30 222.18 348.59 227.89 C 353.92 231.67 358.80 236.15 362.75 241.36 C 368.20 248.27 370.16 257.38 369.81 266.04 C 369.54 278.60 363.15 290.61 353.51 298.53 C 350.37 300.94 346.70 302.55 343.67 305.09 C 357.49 305.54 371.34 305.26 385.17 305.25 C 383.13 301.44 379.73 298.38 378.59 294.10 C 376.66 287.67 377.01 280.38 380.12 274.37 C 381.54 271.58 384.19 269.53 385.25 266.58 C 385.64 257.72 385.25 248.83 385.44 239.96 C 385.79 234.61 382.53 229.47 384.29 224.16 C 385.51 220.07 385.60 215.80 385.30 211.57 C 390.78 209.43 397.28 211.86 402.37 208.04 C 402.43 205.14 402.47 202.24 402.48 199.35 C 396.84 199.10 391.20 199.26 385.56 199.26 C 385.26 189.50 385.41 179.73 385.47 169.96 C 385.61 163.07 386.16 155.41 391.00 150.05 C 392.96 147.76 396.29 148.05 399.00 148.22 C 402.89 148.44 405.43 151.79 408.21 154.08 C 408.16 147.02 408.30 139.95 407.83 132.90 C 400.25 131.95 392.59 132.26 384.98 132.44 C 373.95 133.40 361.83 136.47 354.86 145.78 M 292.02 177.61 C 279.68 181.17 269.22 191.31 266.06 203.86 C 270.40 204.52 274.80 204.28 279.17 204.32 C 279.77 216.85 279.22 229.41 279.43 241.96 C 279.15 244.29 281.39 245.63 282.88 247.00 C 292.21 254.05 302.08 260.41 311.05 267.93 C 315.67 271.63 317.63 278.13 316.00 283.77 C 313.08 288.78 306.51 290.14 301.13 289.51 C 292.95 288.33 286.50 282.85 279.53 278.92 C 279.48 287.02 278.77 296.36 284.15 303.07 C 289.08 305.18 294.59 305.07 299.84 305.64 C 314.89 307.92 330.53 305.47 344.40 299.30 C 360.83 291.26 369.88 270.63 364.17 253.17 C 360.80 242.56 351.89 235.00 342.86 229.13 C 333.96 222.74 324.25 217.34 316.47 209.52 C 313.67 206.31 310.71 202.54 311.15 198.01 C 310.52 192.67 315.79 187.90 320.98 188.43 C 332.05 188.44 342.08 194.72 349.41 202.62 C 351.50 205.05 353.63 207.49 356.22 209.41 C 356.28 199.39 356.42 189.36 356.16 179.35 C 347.97 179.96 339.93 178.10 331.96 176.51 C 318.89 173.46 304.77 172.97 292.02 177.61 M 315.32 197.99 C 315.04 202.71 318.94 206.01 321.97 209.04 C 328.82 215.01 336.71 219.60 344.17 224.75 C 344.31 221.65 344.29 218.56 344.12 215.47 C 340.99 215.49 337.87 215.48 334.76 215.56 C 334.04 209.31 334.62 203.00 334.46 196.73 C 330.52 194.03 325.72 192.67 320.98 192.53 C 317.94 192.29 315.06 194.88 315.32 197.99 M 181.13 208.64 C 182.54 212.99 184.26 217.34 184.36 221.98 C 185.11 235.64 184.55 249.32 184.72 262.99 C 184.77 272.96 182.92 283.79 188.14 292.87 C 191.28 299.09 197.38 303.59 204.15 305.08 C 214.81 306.98 225.78 304.10 235.08 298.85 C 237.54 297.10 239.65 294.91 242.22 293.31 C 242.38 296.66 242.35 300.01 242.45 303.37 C 254.42 303.36 266.40 303.42 278.37 303.31 C 277.01 298.65 275.44 293.95 275.56 289.03 C 275.21 262.24 275.62 235.45 275.34 208.67 C 263.21 208.53 251.07 208.61 238.94 208.62 C 240.94 215.56 242.28 222.71 242.29 229.96 C 242.25 245.00 242.26 260.04 242.31 275.09 C 242.28 279.07 241.22 283.42 238.19 286.21 C 234.30 290.04 227.35 290.41 223.28 286.67 C 218.88 283.25 217.87 277.31 217.66 272.08 C 217.56 250.93 217.81 229.77 217.53 208.62 C 205.40 208.59 193.26 208.57 181.13 208.64 M 410.05 210.53 C 403.28 211.99 396.38 214.45 391.37 219.43 C 387.89 222.91 387.61 228.35 388.93 232.84 C 389.96 236.36 393.74 237.55 396.94 238.23 C 402.19 238.97 407.98 237.72 411.77 233.82 C 415.45 229.06 415.65 222.29 420.04 218.02 C 423.07 216.29 427.30 215.64 430.36 217.64 C 434.53 221.56 434.92 227.64 434.66 233.01 C 435.01 239.03 433.36 245.62 428.42 249.49 C 416.90 258.33 402.08 261.10 390.10 269.14 C 382.45 274.43 379.27 285.37 383.08 293.89 C 385.34 300.37 391.53 304.83 398.06 306.33 C 406.89 307.49 416.42 307.01 424.17 302.16 C 428.08 300.01 430.88 296.46 434.46 293.89 C 434.68 297.65 434.63 301.42 434.85 305.18 C 446.78 305.46 458.71 305.30 470.64 305.25 C 468.80 298.67 467.48 291.90 467.47 285.04 C 467.45 266.66 467.47 248.29 467.47 229.92 C 467.58 225.49 466.12 221.07 463.47 217.53 C 457.55 211.70 449.10 209.25 441.02 208.56 C 430.68 208.26 420.17 208.01 410.05 210.53 M 420.84 223.64 C 418.89 227.48 418.44 232.08 415.58 235.46 C 413.31 238.14 410.68 240.81 407.21 241.82 C 401.45 243.53 395.38 242.64 389.71 241.05 C 389.67 248.54 389.63 256.03 389.74 263.52 C 396.69 261.04 403.06 257.21 410.05 254.79 C 415.96 252.05 422.25 249.57 427.04 245.01 C 430.77 241.79 430.19 236.42 430.45 231.98 C 430.48 227.79 430.74 222.14 425.99 220.35 C 424.23 221.31 421.74 221.61 420.84 223.64 M 279.43 249.33 C 279.96 257.24 278.68 265.33 279.99 273.14 C 284.10 277.20 289.19 280.28 294.49 282.55 C 298.02 283.88 302.91 286.11 305.45 281.97 C 305.91 283.25 307.01 284.12 307.92 285.08 C 309.80 284.08 311.39 282.65 312.80 281.06 C 312.33 277.07 310.92 272.96 307.63 270.41 C 304.06 267.70 300.52 264.92 296.73 262.50 C 296.48 261.47 295.32 261.08 294.61 260.44 C 289.42 256.92 284.30 253.29 279.43 249.33 Z" />
<path fill="#383ac3" opacity="1.00" d=" M 430.29 258.28 C 431.47 256.97 433.13 258.03 434.49 258.35 C 435.04 264.57 434.70 270.82 434.77 277.05 C 434.81 280.74 434.46 284.90 431.49 287.50 C 428.91 290.57 424.44 291.34 420.80 289.96 C 418.20 288.54 415.99 286.26 414.77 283.54 C 414.12 279.19 413.99 274.37 416.69 270.62 C 419.94 265.28 425.52 262.08 430.29 258.28 M 420.84 271.92 C 418.14 275.77 417.26 281.97 421.16 285.35 C 424.09 286.13 428.79 286.53 429.66 282.71 C 431.36 276.64 430.38 270.21 430.44 264.00 C 426.86 266.10 423.27 268.48 420.84 271.92 Z" />
</g>
</svg>
